<?xml version="1.0" encoding="UTF-8"?>
<svg width="16" height="16" version="1.1" viewBox="0 0 4.2333 4.2333" xmlns="http://www.w3.org/2000/svg">
 <style>
  @media (prefers-color-scheme: dark) {
   .dot-rs {
    fill: #fff;
   }
  }
 </style>
 <g transform="translate(0 -292.77)" stroke-width=".26458px">
  <g transform="translate(-.003409 .03036)" fill="#0b7261" aria-label="1.0">
   <path d="m0.016819 294.7h1.3377v-0.38947h-0.38382v-1.3998h-0.3556c-0.14676 0.0903-0.27093 0.13546-0.52493 0.17498v0.29915h0.39511v0.92569h-0.46849z"/>
   <path d="m2.089 294.73c0.22013 0 0.36689-0.16369 0.36689-0.36689 0-0.20037-0.14676-0.36688-0.36689-0.36688-0.22013 0-0.36689 0.16651-0.36689 0.36688 0 0.2032 0.14676 0.36689 0.36689 0.36689z"/>
   <path d="m3.5178 294.73c0.42051 0 0.70556-0.32455 0.70556-0.93697 0-0.61243-0.28504-0.92005-0.70556-0.92005s-0.70556 0.30762-0.70556 0.92005c0 0.61242 0.28504 0.93697 0.70556 0.93697zm0-0.37253c-0.14958 0-0.27658-0.11853-0.27658-0.56444 0-0.44592 0.127-0.54752 0.27658-0.54752s0.27658 0.1016 0.27658 0.54752c0 0.44591-0.127 0.56444-0.27658 0.56444zm0-0.33867c0.12982 0 0.22578-0.0903 0.22578-0.22577s-0.095956-0.22578-0.22578-0.22578c-0.12982 0-0.22578 0.0903-0.22578 0.22578 0 0.13546 0.095956 0.22577 0.22578 0.22577z"/>
  </g>
  <g transform="translate(-.0058353 .022674)" fill="#222" aria-label=".rs" class="dot-rs">
   <path d="m0.48525 296.84c0.22013 0 0.36689-0.16369 0.36689-0.36689 0-0.20038-0.14676-0.36689-0.36689-0.36689-0.22013 0-0.36689 0.16651-0.36689 0.36689 0 0.2032 0.14676 0.36689 0.36689 0.36689z"/>
   <path d="m1.3182 296.81h0.48542v-0.69991c0.10442-0.23706 0.27658-0.32173 0.43744-0.32173 0.1016 0 0.16087 0.0141 0.24553 0.0395l0.095956-0.4064c-0.079022-0.0339-0.13829-0.0564-0.26811-0.0564-0.21167 0-0.41487 0.1016-0.55033 0.33302h-0.011289l-0.036689-0.29916h-0.39793z"/>
   <path d="m3.4042 296.84c0.47131 0 0.72249-0.2032 0.72249-0.46849 0-0.23424-0.12418-0.36124-0.54751-0.4572-0.22013-0.0508-0.29351-0.0564-0.29351-0.11853 0-0.0508 0.056445-0.079 0.14676-0.079 0.14676 0 0.31044 0.0451 0.4572 0.12982l0.21449-0.28787c-0.14958-0.0931-0.36124-0.19755-0.62653-0.19755-0.40922 0-0.67169 0.18062-0.67169 0.4572 0 0.22013 0.14111 0.36689 0.53058 0.45155 0.23707 0.0508 0.31044 0.0621 0.31044 0.12982 0 0.0508-0.0508 0.0847-0.17498 0.0847-0.18062 0-0.37536-0.0536-0.55316-0.15804l-0.2032 0.29915c0.18062 0.11854 0.44591 0.21449 0.68862 0.21449z"/>
  </g>
 </g>
</svg>
